<svg width="48" height="48" viewBox="0 0 48 48" fill="none" xmlns="http://www.w3.org/2000/svg">
<circle cx="24" cy="24" r="24" fill="#44AFE6"/>
<path d="M11 24.2833C11 24.0899 11 23.8965 11 23.7307C11.2083 23.0676 11.6509 22.6532 12.2497 22.4046C15.4781 20.9679 18.6805 19.5312 21.9089 18.0946C24.7988 16.7684 27.6888 15.4975 30.5787 14.199C31.8284 13.6465 32.7917 14.3095 32.974 15.387C32.974 15.387 32.974 15.387 33 15.4147C33 15.6081 33 15.8291 33 16.0225C32.974 16.0777 32.974 16.133 32.9479 16.1883C32.6095 18.0117 32.271 19.8628 31.9325 21.6862C31.2296 25.5818 30.5266 29.4774 29.7976 33.3729C29.5373 34.8096 27.7669 35.5003 26.6734 34.5886C26.0485 34.0636 25.4237 33.5663 24.7988 33.0414C24.1219 32.4888 23.445 31.9363 22.768 31.3837C22.6899 31.439 22.6379 31.4942 22.5858 31.5495C21.8568 32.2678 21.1278 32.9861 20.3728 33.6768C19.774 34.257 18.8367 34.1465 18.3941 33.4005C18.2118 33.0966 18.0817 32.7651 17.9775 32.4336C17.4828 30.7759 17.0142 29.1458 16.5456 27.4881C16.4935 27.2947 16.3893 27.1842 16.2071 27.129C14.9834 26.7146 13.7858 26.2725 12.5882 25.8305C11.8331 25.5818 11.2343 25.1398 11 24.2833ZM31.3077 15.8291C25.1633 18.5919 19.071 21.2994 12.9266 24.0346C13.0568 24.0899 13.1349 24.1175 13.213 24.1451C14.671 24.6701 16.155 25.195 17.613 25.7199C17.7953 25.7752 17.9254 25.7752 18.1077 25.6647C21.3882 23.5097 24.6686 21.3271 27.9751 19.1721C28.1053 19.0892 28.2615 19.0063 28.3917 18.9787C28.4698 18.9511 28.6 18.9787 28.626 19.0339C28.6781 19.1168 28.6781 19.255 28.626 19.3379C28.5479 19.476 28.4438 19.5865 28.3136 19.697C25.7101 22.2941 23.0805 24.8635 20.4769 27.4329C20.3207 27.5987 20.2426 27.7644 20.2166 27.9854C20.1124 28.7867 19.9822 29.5879 19.8521 30.3891C19.774 30.8864 19.7219 31.3837 19.6178 31.9639C20.6592 30.9693 21.6485 30.0023 22.6379 29.0353C24.2781 30.3891 25.8923 31.6876 27.5065 33.0138C27.897 33.3177 28.0793 33.2624 28.1834 32.7651C29.1207 27.5987 30.084 22.4598 31.0213 17.2934C31.1254 16.8237 31.2036 16.354 31.3077 15.8291Z" fill="white"/>
</svg>
